HIERARCHY
ROOT Model_Hips
{
	OFFSET 0.000000 96.915077 0.000000
	CHANNELS 6 Xposition Yposition Zposition Xrotation Yrotation Zrotation
	JOINT Model_Spine
	{
		OFFSET 0.000000 11.137703 -1.289900
		CHANNELS 3 Xrotation Yrotation Zrotation
		JOINT Model_Spine1
		{
			OFFSET 0.000000 12.993942 -1.504922
			CHANNELS 3 Xrotation Yrotation Zrotation
			JOINT Model_Spine2
			{
				OFFSET 0.000000 14.850220 -1.719911
				CHANNELS 3 Xrotation Yrotation Zrotation
				JOINT Model_Neck
				{
					OFFSET 0.000000 16.706543 -1.934903
					CHANNELS 3 Xrotation Yrotation Zrotation
					JOINT Model_Head
					{
						OFFSET 0.000000 10.471298 2.002100
						CHANNELS 3 Xrotation Yrotation Zrotation
						JOINT Model_HeadTop_End
						{
							OFFSET 0.000000 20.842606 3.985100
							CHANNELS 3 Xrotation Yrotation Zrotation
							End Site
							{
								OFFSET 0.000000 21.220154 0.000000
							}
						}
					}
				}
				JOINT Model_LeftShoulder
				{
					OFFSET 7.008500 14.768600 -1.919946
					CHANNELS 3 Xrotation Yrotation Zrotation
					JOINT Model_LeftArm
					{
						OFFSET 14.126271 -3.718048 0.029937
						CHANNELS 3 Xrotation Yrotation Zrotation
						JOINT Model_LeftForeArm
						{
							OFFSET 28.282801 0.000000 0.000000
							CHANNELS 3 Xrotation Yrotation Zrotation
							JOINT Model_LeftHand
							{
								OFFSET 26.204689 0.000000 0.000000
								CHANNELS 3 Xrotation Yrotation Zrotation
								End Site
								{
									OFFSET 26.204704 0.000000 0.000000
								}
							}
						}
					}
				}
				JOINT Model_RightShoulder
				{
					OFFSET -7.008500 14.768555 -1.949840
					CHANNELS 3 Xrotation Yrotation Zrotation
					JOINT Model_RightArm
					{
						OFFSET -14.126281 -3.718018 -0.029932
						CHANNELS 3 Xrotation Yrotation Zrotation
						JOINT Model_RightForeArm
						{
							OFFSET -28.283798 0.000000 -0.000001
							CHANNELS 3 Xrotation Yrotation Zrotation
							JOINT Model_RightHand
							{
								OFFSET -26.204193 0.000000 -0.000001
								CHANNELS 3 Xrotation Yrotation Zrotation
								End Site
								{
									OFFSET -26.204208 0.000000 -0.000001
								}
							}
						}
					}
				}
			}
		}
	}
	JOINT Model_LeftUpLeg
	{
		OFFSET 8.327700 -6.193199 -0.402800
		CHANNELS 3 Xrotation Yrotation Zrotation
		JOINT Model_LeftLeg
		{
			OFFSET 0.735802 -42.108742 -0.610721
			CHANNELS 3 Xrotation Yrotation Zrotation
			JOINT Model_LeftFoot
			{
				OFFSET -0.735806 -36.833748 -0.172876
				CHANNELS 3 Xrotation Yrotation Zrotation
				JOINT Model_LeftToeBase
				{
					OFFSET -0.565857 -11.977769 16.297714
					CHANNELS 3 Xrotation Yrotation Zrotation
					JOINT Model_LeftToe_End
					{
						OFFSET -0.111712 -0.312793 7.857784
						CHANNELS 3 Xrotation Yrotation Zrotation
						End Site
						{
							OFFSET -0.111712 -0.312793 7.857784
						}
					}
				}
			}
		}
	}
	JOINT Model_RightUpLeg
	{
		OFFSET -8.327700 -6.193199 -0.516500
		CHANNELS 3 Xrotation Yrotation Zrotation
		JOINT Model_RightLeg
		{
			OFFSET -0.735785 -42.108738 -0.434061
			CHANNELS 3 Xrotation Yrotation Zrotation
			JOINT Model_RightFoot
			{
				OFFSET 0.735776 -36.833748 -0.021630
				CHANNELS 3 Xrotation Yrotation Zrotation
				JOINT Model_RightToeBase
				{
					OFFSET 0.565817 -11.977745 15.903093
					CHANNELS 3 Xrotation Yrotation Zrotation
					JOINT Model_RightToe_End
					{
						OFFSET 0.111702 -0.312791 7.811342
						CHANNELS 3 Xrotation Yrotation Zrotation
						End Site
						{
							OFFSET 0.111702 -0.312791 7.811342
						}
					}
				}
			}
		}
	}
}
MOTION
Frames: 9
Frame Time: 0.016667
0.286163 90.421036 1.833535 5.448767 2.898364 -2.962752 4.925092 1.351949 1.332453 9.857123 2.800252 1.722122 9.857119 2.800249 1.722122 -2.495292 -1.054343 -0.099083 -2.495305 -1.054344 -0.099086 -0.000002 -0.000000 0.000000 1.084083 -1.226500 -9.108476 21.951224 16.129888 -69.744592 5.201841 -103.989862 -6.123434 -0.000000 0.000001 0.000000 0.776471 6.054097 9.529805 5.506732 -10.523607 55.529308 -70.896025 86.710467 75.613302 -0.000001 -0.000003 0.000002 -36.905438 6.207718 -1.775119 100.656286 14.398233 3.969177 -18.128388 -0.920837 4.408782 -0.898562 -2.887884 -6.627556 -0.000002 -0.000000 -0.000000 -16.827578 -5.243000 4.106599 49.691692 0.058269 -1.509527 -30.201720 0.172692 -1.263000 -10.243091 12.978176 -1.678547 0.000000 0.000001 0.000000 
0.053345 88.663261 9.542210 1.766547 -0.428779 -1.827359 5.373401 1.553695 0.593146 10.765024 3.186815 0.442965 10.765025 3.186813 0.442966 -2.270159 -1.269720 0.043814 -2.270131 -1.269720 0.043815 0.000000 -0.000000 -0.000000 1.093677 -0.496614 -9.661049 24.933778 20.260363 -69.006036 1.207274 -95.525380 -13.544238 0.000001 -0.000001 0.000000 0.777633 6.374583 8.995304 -0.308478 -0.289854 47.970751 -27.214315 83.909762 31.726212 0.000002 -0.000002 0.000003 -46.433023 8.141256 -2.173336 94.965919 5.667716 4.219743 -18.122577 -1.051307 4.457433 -1.374899 -2.150641 -7.009254 0.000002 0.000000 0.000001 -16.028316 -7.944420 2.434081 58.932252 -0.654808 -1.469495 -31.510651 0.333681 -1.084609 -19.066907 11.667457 -0.411208 0.000001 -0.000000 0.000000 
-0.011014 86.724709 17.142479 -1.615759 -3.591959 -1.224357 5.798427 1.681956 -0.108980 11.628821 3.498130 -0.791215 11.628815 3.498129 -0.791215 -2.050519 -1.508515 0.252385 -2.050530 -1.508515 0.252384 0.000001 -0.000000 0.000000 1.100358 0.147237 -10.057407 27.940887 24.187423 -68.427820 64.600503 -87.601609 46.678326 -0.000000 -0.000001 0.000000 0.782703 6.602161 8.452320 -5.529816 9.072761 41.126686 -7.234765 79.915713 11.307875 0.000002 -0.000001 0.000003 -54.390856 10.062122 -2.220007 90.101847 -1.989603 3.633593 -17.972270 -1.382131 4.952198 -2.146628 -1.806945 -7.135373 0.000001 0.000001 -0.000001 -14.745373 -10.480722 0.645404 67.120481 -1.014380 -1.381062 -31.907324 0.104469 -0.884029 -27.479866 9.908855 0.376753 0.000000 0.000000 0.000000 
0.064012 84.115074 25.023830 -4.238677 -5.964358 -1.264664 6.142495 1.680875 -0.682895 12.329587 3.653537 -1.816671 12.329581 3.653537 -1.816669 -1.851063 -1.832714 0.683043 -1.851077 -1.832714 0.683045 0.000001 -0.000000 0.000000 1.094873 0.487444 -9.920588 30.957692 27.423167 -68.373656 47.652973 -86.334711 27.200774 -0.000001 0.000002 -0.000000 0.800079 6.506179 7.883590 -9.017943 15.289493 36.768452 -1.624833 74.557635 4.657422 -0.000001 0.000000 -0.000002 -56.101651 10.540447 -3.086222 86.675811 -6.237330 4.653821 -17.444443 -2.304091 6.529249 -3.970159 -2.886813 -6.450230 0.000001 0.000000 -0.000000 -10.888346 -12.551682 -1.710433 73.050348 0.162469 -1.933211 -34.603490 -1.534036 0.725550 -34.642221 6.982971 0.402682 -0.000001 -0.000000 0.000000 
0.334812 81.860367 30.250343 -6.914447 -8.521082 -1.686919 6.527508 1.637037 -1.269351 13.112100 3.773668 -2.846349 13.112101 3.773671 -2.846350 -1.665211 -2.224919 1.195698 -1.665225 -2.224920 1.195703 0.000000 0.000000 0.000000 1.083325 0.788466 -9.638666 34.148893 30.531113 -68.847296 46.387834 -85.944086 24.257248 0.000001 -0.000001 0.000000 0.819338 6.356034 7.195429 -12.735124 20.985597 33.814644 0.181191 69.017019 0.590760 -0.000001 -0.000001 -0.000001 -57.662438 8.749722 -5.112343 81.307460 -8.975447 5.459922 -13.124554 -3.952574 10.671663 -7.701450 -4.625389 -5.582314 -0.000000 0.000000 -0.000000 -9.478275 -14.851859 -4.995101 79.179692 2.504394 -2.749302 -34.582450 -3.114443 2.053605 -42.342501 2.855270 -0.396632 -0.000001 0.000002 0.000001 
0.634384 79.547813 35.407562 -9.560544 -11.432618 -2.325452 6.928124 1.590578 -1.870292 13.927042 3.879941 -3.904826 13.927042 3.879944 -3.904825 -1.536965 -2.648327 1.719218 -1.536971 -2.648327 1.719221 0.000001 -0.000000 -0.000000 1.073667 1.132368 -9.430958 37.229022 33.295386 -69.631566 50.971574 -86.148828 28.319679 -0.000000 -0.000001 0.000000 0.838050 6.111920 6.411111 -16.935847 25.901170 32.529483 -0.987200 64.386069 -1.303420 0.000000 -0.000001 0.000001 -58.615857 3.460619 -7.739064 78.748386 -11.497341 4.911552 -10.560013 -5.618361 14.975234 -10.981184 -5.516535 -5.197534 -0.000001 -0.000000 0.000000 -8.197900 -16.778262 -9.396313 84.843100 6.232528 -3.653876 -33.483524 -3.903600 2.681196 -46.316466 -2.498769 -1.410759 -0.000000 0.000004 0.000001 
0.939450 77.167732 40.568359 -11.955824 -14.861901 -2.850125 7.260821 1.596917 -2.523610 14.605641 3.990525 -5.010083 14.605646 3.990528 -5.010083 -1.496560 -3.067108 2.174628 -1.496569 -3.067104 2.174627 0.000001 0.000001 -0.000000 1.077108 1.591424 -9.450012 39.837563 35.595524 -70.278651 61.166052 -86.663469 38.995322 -0.000001 -0.000001 0.000000 0.851739 5.692814 5.551961 -21.818974 29.666271 32.892729 -4.335936 61.525989 -0.420448 0.000003 0.000000 -0.000000 -60.363675 -3.900744 -11.222965 81.631641 -13.991000 4.399879 -11.419618 -5.306710 14.008298 -11.345308 -4.672563 -5.390982 -0.000000 0.000003 0.000001 -7.596980 -17.705691 -15.593682 90.034085 11.522707 -4.107025 -30.877735 -3.555460 2.136957 -48.840763 -8.481136 -1.748339 0.000001 -0.000003 -0.000000 
1.290697 74.649384 45.583397 -13.783582 -18.817803 -3.035677 7.422501 1.658041 -3.167791 14.944732 4.103171 -6.134618 14.944734 4.103170 -6.134615 -1.544160 -3.466893 2.507026 -1.544160 -3.466891 2.507025 -0.000001 0.000001 -0.000000 1.102383 2.207540 -9.681577 41.562312 37.246258 -70.330287 76.855167 -87.224220 55.859674 -0.000001 0.000001 -0.000000 0.851428 5.091579 4.767286 -27.324020 31.774238 34.502243 -8.241228 60.573423 3.561700 -0.000002 -0.000000 0.000001 -60.758877 -7.319875 -10.801282 83.584850 -21.655887 4.186026 -10.430675 -2.357925 8.803203 -10.145224 -2.900305 -5.898767 0.000001 0.000001 0.000001 -8.577353 -17.286367 -23.767364 94.807015 17.670502 -4.119283 -26.252189 -2.432777 1.065650 -52.806177 -14.928721 3.222556 -0.000000 0.000002 0.000000 
1.634692 71.919426 50.402077 -14.896798 -23.182630 -2.863301 7.392456 1.764880 -3.744364 14.904475 4.188182 -7.237545 14.904461 4.188174 -7.237543 -1.648108 -3.863328 2.713903 -1.648112 -3.863329 2.713908 0.000002 -0.000002 0.000001 1.148407 2.988069 -9.962785 41.762263 37.984608 -69.309338 90.723231 -87.628923 71.308480 -0.000000 -0.000001 0.000000 0.836080 4.472557 4.450979 -32.804063 31.833418 36.371273 -10.163310 61.121293 9.282762 -0.000001 -0.000000 0.000001 -59.875549 -5.780316 -5.611898 85.489141 -34.070910 5.455061 -8.900192 1.710176 1.892852 -9.937756 -1.342988 -6.322831 0.000000 0.000003 0.000000 -11.238937 -15.286298 -33.188791 99.064954 23.138997 -3.952793 -19.665530 -1.257019 0.770847 -59.373605 -20.740409 4.148244 0.000001 0.000001 -0.000000 
